{
  "accessors": [
    {
      "bufferView": 2,
      "componentType": 5126,
      "count": 4169,
      "max": [
        1.1409660577774048,
        0.7503039836883545,
        2.084433078765869
      ],
      "min": [
        -1.0737420320510864,
        -1.1236289739608765,
        -0.0030189999379217625
      ],
      "type": "VEC3"
    },
    {
      "bufferView": 2,
      "byteOffset": 50028,
      "componentType": 5126,
      "count": 4169,
      "max": [
        0.9999992847442627,
        1.0,
        1.0
      ],
      "min": [
        -0.9999992847442627,
        -1.0,
        -1.0
      ],
      "type": "VEC3"
    },
    {
      "bufferView": 3,
      "componentType": 5126,
      "count": 4169,
      "max": [
        1.0,
        0.9999999403953552,
        0.9999236464500427,
        1.0
      ],
      "min": [
        -1.0,
        -0.9999993443489075,
        -0.9999414086341858,
        -1.0
      ],
      "type": "VEC4"
    },
    {
      "bufferView": 1,
      "componentType": 5126,
      "count": 4169,
      "max": [
        0.9970049858093262,
        0.9948379993438721
      ],
      "min": [
        0.002873999997973442,
        0.0024649999104440212
      ],
      "type": "VEC2"
    },
    {
      "bufferView": 0,
      "componentType": 5125,
      "count": 15129,
      "type": "SCALAR"
    }
  ],
  "asset": {
    "extras": {
      "author": "Tigerar1 (https://sketchfab.com/allanromanreyes)",
      "license": "SKETCHFAB Standard (https://sketchfab.com/licenses)",
      "source": "https://sketchfab.com/3d-models/shanks-f24963097a7947ec9fb2d80db003bc31",
      "title": "Shanks"
    },
    "generator": "Sketchfab-15.87.0",
    "version": "2.0"
  },
  "bufferViews": [
    {
      "buffer": 0,
      "byteLength": 60516,
      "name": "floatBufferViews",
      "target": 34963
    },
    {
      "buffer": 0,
      "byteLength": 33352,
      "byteOffset": 60516,
      "byteStride": 8,
      "name": "floatBufferViews",
      "target": 34962
    },
    {
      "buffer": 0,
      "byteLength": 100056,
      "byteOffset": 93868,
      "byteStride": 12,
      "name": "floatBufferViews",
      "target": 34962
    },
    {
      "buffer": 0,
      "byteLength": 66704,
      "byteOffset": 193924,
      "byteStride": 16,
      "name": "floatBufferViews",
      "target": 34962
    }
  ],
  "buffers": [
    {
      "byteLength": 260628,
      "uri": "scene.bin"
    }
  ],
  "images": [
    {
      "uri": "textures/pl_shanks_orig01_di25ff_png_baseColor.png"
    },
    {
      "uri": "textures/pl_shanks_orig01_di25ff_png_normal.png"
    }
  ],
  "materials": [
    {
      "doubleSided": true,
      "name": "pl_shanks_orig01_di25ff_png",
      "normalTexture": {
        "index": 1
      },
      "pbrMetallicRoughness": {
        "baseColorTexture": {
          "index": 0
        },
        "metallicFactor": 0.0
      }
    }
  ],
  "meshes": [
    {
      "name": "Object_0",
      "primitives": [
        {
          "attributes": {
            "NORMAL": 1,
            "POSITION": 0,
            "TANGENT": 2,
            "TEXCOORD_0": 3
          },
          "indices": 4,
          "material": 0,
          "mode": 4
        }
      ]
    }
  ],
  "nodes": [
    {
      "children": [
        1
      ],
      "matrix": [
        1.0,
        0.0,
        0.0,
        0.0,
        0.0,
        2.220446049250313e-16,
        -1.0,
        0.0,
        0.0,
        1.0,
        2.220446049250313e-16,
        0.0,
        0.0,
        0.0,
        0.0,
        1.0
      ],
      "name": "Sketchfab_model"
    },
    {
      "children": [
        2
      ],
      "name": "Shanks.obj.cleaner.materialmerger.gles"
    },
    {
      "mesh": 0,
      "name": "Object_2"
    }
  ],
  "samplers": [
    {
      "magFilter": 9729,
      "minFilter": 9987,
      "wrapS": 10497,
      "wrapT": 10497
    }
  ],
  "scene": 0,
  "scenes": [
    {
      "name": "Sketchfab_Scene",
      "nodes": [
        0
      ]
    }
  ],
  "textures": [
    {
      "sampler": 0,
      "source": 0
    },
    {
      "sampler": 0,
      "source": 1
    }
  ]
}
