{
  "accessors": [
    {
      "bufferView": 2,
      "componentType": 5126,
      "count": 117,
      "max": [
        0.612995982170105,
        0.05900700017809868,
        1.4027390480041504
      ],
      "min": [
        0.5738930106163025,
        -0.017875000834465027,
        1.3161580562591553
      ],
      "type": "VEC3"
    },
    {
      "bufferView": 2,
      "byteOffset": 1404,
      "componentType": 5126,
      "count": 117,
      "max": [
        0.9999690055847168,
        1.0,
        1.0
      ],
      "min": [
        -0.999969482421875,
        -1.0,
        -0.9719588756561279
      ],
      "type": "VEC3"
    },
    {
      "bufferView": 1,
      "componentType": 5126,
      "count": 117,
      "max": [
        0.9821569919586182,
        -0.02563299983739853
      ],
      "min": [
        0.3797619938850403,
        -0.9856110215187073
      ],
      "type": "VEC2"
    },
    {
      "bufferView": 0,
      "componentType": 5125,
      "count": 468,
      "type": "SCALAR"
    },
    {
      "bufferView": 2,
      "byteOffset": 2808,
      "componentType": 5126,
      "count": 1547,
      "max": [
        0.7823410034179688,
        0.1272449940443039,
        1.684262990951538
      ],
      "min": [
        -0.7823399901390076,
        -0.1736460030078888,
        -0.0015249999705702066
      ],
      "type": "VEC3"
    },
    {
      "bufferView": 2,
      "byteOffset": 21372,
      "componentType": 5126,
      "count": 1547,
      "max": [
        0.9998760223388672,
        0.9998779892921448,
        0.9974984526634216
      ],
      "min": [
        -0.9998779892921448,
        -0.9939788579940796,
        -0.9995121359825134
      ],
      "type": "VEC3"
    },
    {
      "bufferView": 1,
      "byteOffset": 936,
      "componentType": 5126,
      "count": 1547,
      "max": [
        0.9959229826927185,
        -0.004042999818921089
      ],
      "min": [
        0.0044999998062849045,
        -0.9963610172271729
      ],
      "type": "VEC2"
    },
    {
      "bufferView": 0,
      "byteOffset": 1872,
      "componentType": 5125,
      "count": 5559,
      "type": "SCALAR"
    },
    {
      "bufferView": 2,
      "byteOffset": 39936,
      "componentType": 5126,
      "count": 622,
      "max": [
        0.0927020013332367,
        0.028703000396490097,
        1.6425180435180664
      ],
      "min": [
        -0.0927020013332367,
        -0.10275600105524063,
        1.447492003440857
      ],
      "type": "VEC3"
    },
    {
      "bufferView": 2,
      "byteOffset": 47400,
      "componentType": 5126,
      "count": 622,
      "max": [
        0.9996901154518127,
        0.9836248755455017,
        0.9998760223388672
      ],
      "min": [
        -0.9996950030326843,
        -0.9999690055847168,
        -0.9985079765319824
      ],
      "type": "VEC3"
    },
    {
      "bufferView": 1,
      "byteOffset": 13312,
      "componentType": 5126,
      "count": 622,
      "max": [
        0.99543297290802,
        -0.004298999905586243
      ],
      "min": [
        0.003628999926149845,
        -0.9961069822311401
      ],
      "type": "VEC2"
    },
    {
      "bufferView": 0,
      "byteOffset": 24108,
      "componentType": 5125,
      "count": 3444,
      "type": "SCALAR"
    }
  ],
  "asset": {
    "extras": {
      "author": "Tigerar1 (https://sketchfab.com/allanromanreyes)",
      "license": "SKETCHFAB Standard (https://sketchfab.com/licenses)",
      "source": "https://sketchfab.com/3d-models/nami-2c4e37fabf0b424882efd69d047961ad",
      "title": "Nami"
    },
    "generator": "Sketchfab-15.87.0",
    "version": "2.0"
  },
  "bufferViews": [
    {
      "buffer": 0,
      "byteLength": 37884,
      "name": "floatBufferViews",
      "target": 34963
    },
    {
      "buffer": 0,
      "byteLength": 18288,
      "byteOffset": 37884,
      "byteStride": 8,
      "name": "floatBufferViews",
      "target": 34962
    },
    {
      "buffer": 0,
      "byteLength": 54864,
      "byteOffset": 56172,
      "byteStride": 12,
      "name": "floatBufferViews",
      "target": 34962
    }
  ],
  "buffers": [
    {
      "byteLength": 111036,
      "uri": "scene.bin"
    }
  ],
  "images": [
    {
      "uri": "textures/0000_tex_03_nmi_bodyout.png_baseColor.png"
    },
    {
      "uri": "textures/0001_tex_03_nmi_faceout.png_baseColor.png"
    },
    {
      "uri": "textures/0002_tex_03_nmi_weapon1out.png_baseColor.png"
    }
  ],
  "materials": [
    {
      "doubleSided": true,
      "name": "0000_tex_03_nmi_bodyout.png",
      "pbrMetallicRoughness": {
        "baseColorTexture": {
          "index": 0
        },
        "metallicFactor": 0.0,
        "roughnessFactor": 0.7621585769994558
      }
    },
    {
      "doubleSided": true,
      "name": "0001_tex_03_nmi_faceout.png",
      "pbrMetallicRoughness": {
        "baseColorTexture": {
          "index": 1
        },
        "metallicFactor": 0.0,
        "roughnessFactor": 0.7621585769994558
      }
    },
    {
      "doubleSided": true,
      "name": "0002_tex_03_nmi_weapon1out.png",
      "pbrMetallicRoughness": {
        "baseColorTexture": {
          "index": 2
        },
        "metallicFactor": 0.0,
        "roughnessFactor": 0.7621585769994558
      }
    }
  ],
  "meshes": [
    {
      "name": "Object_0",
      "primitives": [
        {
          "attributes": {
            "NORMAL": 1,
            "POSITION": 0,
            "TEXCOORD_0": 2
          },
          "indices": 3,
          "material": 2,
          "mode": 4
        }
      ]
    },
    {
      "name": "Object_1",
      "primitives": [
        {
          "attributes": {
            "NORMAL": 5,
            "POSITION": 4,
            "TEXCOORD_0": 6
          },
          "indices": 7,
          "material": 0,
          "mode": 4
        }
      ]
    },
    {
      "name": "Object_2",
      "primitives": [
        {
          "attributes": {
            "NORMAL": 9,
            "POSITION": 8,
            "TEXCOORD_0": 10
          },
          "indices": 11,
          "material": 1,
          "mode": 4
        }
      ]
    }
  ],
  "nodes": [
    {
      "children": [
        1
      ],
      "matrix": [
        1.0,
        0.0,
        0.0,
        0.0,
        0.0,
        2.220446049250313e-16,
        -1.0,
        0.0,
        0.0,
        1.0,
        2.220446049250313e-16,
        0.0,
        0.0,
        0.0,
        0.0,
        1.0
      ],
      "name": "Sketchfab_model"
    },
    {
      "children": [
        2,
        3,
        4
      ],
      "name": "Nami.obj.cleaner.materialmerger.gles"
    },
    {
      "mesh": 0,
      "name": "Object_2"
    },
    {
      "mesh": 1,
      "name": "Object_3"
    },
    {
      "mesh": 2,
      "name": "Object_4"
    }
  ],
  "samplers": [
    {
      "magFilter": 9729,
      "minFilter": 9987,
      "wrapS": 10497,
      "wrapT": 10497
    }
  ],
  "scene": 0,
  "scenes": [
    {
      "name": "Sketchfab_Scene",
      "nodes": [
        0
      ]
    }
  ],
  "textures": [
    {
      "sampler": 0,
      "source": 0
    },
    {
      "sampler": 0,
      "source": 1
    },
    {
      "sampler": 0,
      "source": 2
    }
  ]
}
