{
  "accessors": [
    {
      "bufferView": 2,
      "componentType": 5126,
      "count": 36725,
      "max": [
        0.048460304737091064,
        0.1037285178899765,
        0.07776211202144623
      ],
      "min": [
        -0.04846029728651047,
        -0.1037285178899765,
        -0.07776211202144623
      ],
      "type": "VEC3"
    },
    {
      "bufferView": 2,
      "byteOffset": 440700,
      "componentType": 5126,
      "count": 36725,
      "max": [
        0.9999819993972778,
        0.9999346137046814,
        0.9999243021011353
      ],
      "min": [
        -0.9999687671661377,
        -0.9999963045120239,
        -0.9999430179595947
      ],
      "type": "VEC3"
    },
    {
      "bufferView": 1,
      "componentType": 5126,
      "count": 36725,
      "max": [
        0.999968945980072,
        0.9991277456283569
      ],
      "min": [
        1.7451196981710382e-05,
        2.131444307451602e-05
      ],
      "type": "VEC2"
    },
    {
      "bufferView": 1,
      "byteOffset": 293800,
      "componentType": 5126,
      "count": 36725,
      "max": [
        0.999968945980072,
        0.9991277456283569
      ],
      "min": [
        1.7451196981710382e-05,
        2.131444307451602e-05
      ],
      "type": "VEC2"
    },
    {
      "bufferView": 1,
      "byteOffset": 587600,
      "componentType": 5126,
      "count": 36725,
      "max": [
        0.999968945980072,
        0.9991277456283569
      ],
      "min": [
        1.7451196981710382e-05,
        2.131444307451602e-05
      ],
      "type": "VEC2"
    },
    {
      "bufferView": 1,
      "byteOffset": 881400,
      "componentType": 5126,
      "count": 36725,
      "max": [
        0.999968945980072,
        0.9991277456283569
      ],
      "min": [
        1.7451196981710382e-05,
        2.131444307451602e-05
      ],
      "type": "VEC2"
    },
    {
      "bufferView": 1,
      "byteOffset": 1175200,
      "componentType": 5126,
      "count": 36725,
      "max": [
        0.999968945980072,
        0.9991277456283569
      ],
      "min": [
        1.7451196981710382e-05,
        2.131444307451602e-05
      ],
      "type": "VEC2"
    },
    {
      "bufferView": 0,
      "componentType": 5125,
      "count": 195150,
      "type": "SCALAR"
    }
  ],
  "asset": {
    "extras": {
      "author": "Mario Rocha (https://sketchfab.com/Mario_r_o_c_h_a)",
      "license": "CC-BY-NC-SA-4.0 (http://creativecommons.org/licenses/by-nc-sa/4.0/)",
      "source": "https://sketchfab.com/3d-models/day-08-monkey-d-luffy-50d2f44ab8a54158a7eb9f09f282ac12",
      "title": "DAY 08 | MONKEY D. LUFFY"
    },
    "generator": "Sketchfab-12.67.0",
    "version": "2.0"
  },
  "bufferViews": [
    {
      "buffer": 0,
      "byteLength": 780600,
      "name": "floatBufferViews",
      "target": 34963
    },
    {
      "buffer": 0,
      "byteLength": 1469000,
      "byteOffset": 780600,
      "byteStride": 8,
      "name": "floatBufferViews",
      "target": 34962
    },
    {
      "buffer": 0,
      "byteLength": 881400,
      "byteOffset": 2249600,
      "byteStride": 12,
      "name": "floatBufferViews",
      "target": 34962
    }
  ],
  "buffers": [
    {
      "byteLength": 3131000,
      "uri": "scene.bin"
    }
  ],
  "extensionsUsed": [
    "KHR_materials_unlit"
  ],
  "images": [
    {
      "uri": "textures/material_0_baseColor.jpeg"
    }
  ],
  "materials": [
    {
      "extensions": {
        "KHR_materials_unlit": {}
      },
      "name": "material_0",
      "pbrMetallicRoughness": {
        "baseColorTexture": {
          "index": 0
        },
        "metallicFactor": 0.0
      }
    }
  ],
  "meshes": [
    {
      "name": "Object_0",
      "primitives": [
        {
          "attributes": {
            "NORMAL": 1,
            "POSITION": 0,
            "TEXCOORD_0": 2,
            "TEXCOORD_1": 3,
            "TEXCOORD_2": 4,
            "TEXCOORD_3": 5,
            "TEXCOORD_4": 6
          },
          "indices": 7,
          "material": 0,
          "mode": 4
        }
      ]
    }
  ],
  "nodes": [
    {
      "children": [
        1
      ],
      "matrix": [
        1.0,
        0.0,
        0.0,
        0.0,
        0.0,
        2.220446049250313e-16,
        -1.0,
        0.0,
        0.0,
        1.0,
        2.220446049250313e-16,
        0.0,
        0.0,
        0.0,
        0.0,
        1.0
      ],
      "name": "Sketchfab_model"
    },
    {
      "children": [
        2
      ],
      "name": "root"
    },
    {
      "children": [
        3
      ],
      "matrix": [
        1.0,
        0.0,
        0.0,
        0.0,
        0.0,
        2.220446049250313e-16,
        1.0,
        0.0,
        0.0,
        -1.0,
        2.220446049250313e-16,
        0.0,
        0.0,
        0.0,
        0.0,
        1.0
      ],
      "name": "GLTF_SceneRootNode"
    },
    {
      "children": [
        4
      ],
      "name": "_0"
    },
    {
      "mesh": 0,
      "name": "Object_4"
    }
  ],
  "samplers": [
    {
      "magFilter": 9729,
      "minFilter": 9987,
      "wrapS": 10497,
      "wrapT": 10497
    }
  ],
  "scene": 0,
  "scenes": [
    {
      "name": "Sketchfab_Scene",
      "nodes": [
        0
      ]
    }
  ],
  "textures": [
    {
      "sampler": 0,
      "source": 0
    }
  ]
}
